<svg width="187" height="32" viewBox="0 0 187 32" fill="none" xmlns="http://www.w3.org/2000/svg">
<path fill-rule="evenodd" clip-rule="evenodd" d="M47.3281 9.02813C48.4317 6.43061 52.8995 -0.00701458 61.644 5.73721e-06C70.3983 0.00702605 77.5183 6.95152 77.5197 15.8912C77.5225 24.6469 70.3983 31.9214 61.644 31.9242C52.8995 31.9284 48.5876 25.5539 47.345 23.007C47.338 27.0521 43.4628 31.7711 38.0178 31.7711L24.5107 31.7683V0.519509H38.9978C43.4951 0.525125 47.338 5.12764 47.3281 9.02813ZM32.5897 24.4911H36.8861C38.1357 24.4911 39.12 23.2569 39.12 21.8514C39.12 20.4446 38.1357 19.2104 36.8861 19.2104H32.5897V24.4911ZM32.6051 12.7587H36.9016C38.1512 12.7587 39.1354 11.5231 39.1354 10.1163C39.1354 8.71081 38.1512 7.47664 36.9016 7.47664H32.6051V12.7587ZM45.823 13.9297C45.2445 14.6486 43.6046 15.7732 42.6203 15.8982C43.62 16.0232 45.1813 17.2728 45.8412 18.2893C45.604 17.3977 45.6194 14.8199 45.823 13.9297ZM53.6956 15.8982C53.6956 20.2915 57.2563 23.8522 61.6496 23.8522C66.0415 23.8522 69.6036 20.2915 69.6036 15.8982C69.6036 11.5049 66.0429 7.94419 61.6496 7.94419C57.2563 7.94419 53.6956 11.5063 53.6956 15.8982ZM121.635 11.554C121.638 11.5751 121.635 31.2362 121.635 31.2362C121.635 31.5002 121.457 31.7683 121.197 31.7683H118.525C116.963 31.7711 115.665 30.4387 115.662 28.8549V11.6242C115.543 7.89645 112.926 5.92655 109.715 5.93217C106.505 5.93638 103.892 7.99193 103.784 11.7197V31.2601C103.784 31.524 103.599 31.7669 103.339 31.7669H100.667C99.1044 31.7697 97.807 30.3741 97.8042 28.7917V11.6495C97.6849 7.92173 95.0677 5.95183 91.8566 5.95744C88.6469 5.96166 86.0339 7.93857 85.9258 11.6664V31.2853C85.9258 31.5493 85.7405 31.7669 85.4808 31.7669H82.8088C81.2461 31.7697 79.9558 30.4878 79.9529 28.904C79.9529 28.904 79.9515 11.6411 79.9529 11.6242C80.1074 4.05775 85.3712 0.0421276 91.8496 0.0337032C95.4047 0.028087 98.5975 1.23137 100.784 3.56773C102.964 1.22435 106.153 0.0140464 109.708 0.00843011C116.179 0.0014098 121.453 3.99737 121.635 11.554ZM183.192 31.3906C183.299 31.5479 183.182 31.7571 182.989 31.7571L178.216 31.7697C177.097 31.7725 176.006 31.6363 175.039 30.2786L170.156 23.073C169.774 22.5085 169.219 21.8402 168.431 21.8402C167.644 21.8402 167.089 22.5085 166.707 23.073L161.824 30.2786C160.856 31.6363 159.766 31.7725 158.646 31.7697H153.874C153.68 31.7697 153.564 31.5479 153.67 31.3906L163.088 17.489C163.361 17.0832 163.495 16.6129 163.489 16.1425C163.495 15.6722 163.361 15.2018 163.088 14.796L153.67 0.894394C153.564 0.737139 153.68 0.523721 153.874 0.523721H158.646C159.766 0.520913 160.856 0.648683 161.824 2.00641L166.707 9.21206C167.089 9.77649 167.645 10.4448 168.431 10.4448C169.218 10.4448 169.774 9.77649 170.156 9.21206L175.039 2.00641C176.006 0.648683 177.097 0.520913 178.216 0.523721H182.989C183.182 0.523721 183.299 0.737139 183.192 0.894394L173.775 14.796C173.501 15.2018 173.368 15.6722 173.374 16.1425C173.368 16.6129 173.501 17.0832 173.775 17.489L183.192 31.3906ZM149.915 0.523721H151.795C152.061 0.523721 152.276 0.737139 152.276 1.00531L152.265 31.392C152.265 31.656 152.049 31.7711 151.783 31.7711H149.057C147.54 31.7711 146.299 30.7055 146.181 29.2228C144.095 30.9118 140.833 32 137.543 32C128.951 32 123.021 25.8881 123.021 16.0063C123.021 6.20316 128.852 0.0126423 137.614 0.0126423C140.51 0.0126423 144.016 0.898606 146.72 3.176L147.415 1.96289C147.931 1.07271 148.884 0.525125 149.915 0.523721ZM128.854 16.0049C128.854 22.3372 132.504 26.0454 137.486 26.0454C142.467 26.0454 146.118 22.3372 146.118 16.0049C146.118 9.67259 142.467 5.96446 137.486 5.96446C132.504 5.96446 128.854 9.67259 128.854 16.0049ZM14.2583 12.1466H8.74872V0.522317H0V31.7697H8.74872V19.6457H14.2583V31.7697H22.7458V0.522317H14.2583V12.1466ZM61.6496 9.64592C58.1956 9.64592 55.3973 12.4456 55.3973 15.8982C55.3973 19.3522 58.197 22.1519 61.6496 22.1519C65.1022 22.1519 67.9019 19.3522 67.9019 15.8982C67.9019 12.4456 65.1022 9.64592 61.6496 9.64592ZM183.993 0.811548H184.424V2.05274H184.773V0.811548H185.217V0.522312H183.993V0.811548ZM186.61 0.522312L186.196 1.20328L185.78 0.522312H185.432V2.05274H185.78V1.16397L186.176 1.81264H186.215L186.61 1.16397V2.05274H186.959V0.522312H186.61Z" fill="white"/>
</svg>
